<svg xmlns="http://www.w3.org/2000/svg" viewBox="227.25 203.3 87.7 46.7">
  <path d="M 266.038 250 L 266.038 231.08 Q 266.038 225.146 261.136 225.146 Q 256.234 225.146 256.234 231.08 L 256.234 250 L 246.688 250 L 246.688 231.08 Q 246.688 225.146 241.786 225.146 Q 236.798 225.146 236.798 231.08 L 236.798 250 L 227.252 250 L 227.252 229.962 Q 227.252 223.77 231.552 220.588 Q 235.336 217.75 241.786 217.75 Q 248.322 217.75 251.418 221.104 Q 254.084 217.75 261.136 217.75 Q 267.586 217.75 271.37 220.588 Q 275.67 223.77 275.67 229.962 L 275.67 250 Z" style="fill: rgb(249, 128, 18); white-space: pre;"/>
  <path d="M 304.374 249.828 L 304.374 230.736 L 288.206 230.736 L 288.206 249.828 L 277.628 249.828 L 277.628 220.416 Q 277.628 212.074 282.874 207.516 Q 287.862 203.302 296.29 203.302 Q 304.804 203.302 309.706 207.516 Q 314.952 212.074 314.952 220.416 L 314.952 249.828 Z M 296.29 212.332 Q 291.302 212.332 289.496 215.342 Q 288.206 217.578 288.12 222.996 L 304.46 222.996 Q 304.46 222.738 304.46 222.265 Q 304.46 221.792 304.46 221.62 Q 304.46 212.332 296.29 212.332 Z" style="white-space: pre;"/>
</svg>