<svg xmlns="http://www.w3.org/2000/svg" viewBox="20.35 198.97 455.05 51.92">
    <path d="M 262.78 249.838 L 262.78 231.856 L 247.552 231.856 L 247.552 249.838 L 237.589 249.838 L 237.589 222.136 Q 237.589 214.279 242.53 209.986 Q 247.228 206.017 255.166 206.017 Q 263.185 206.017 267.802 209.986 Q 272.743 214.279 272.743 222.136 L 272.743 249.838 Z M 255.166 214.522 Q 250.468 214.522 248.767 217.357 Q 247.552 219.463 247.471 224.566 L 262.861 224.566 Q 262.861 224.323 262.861 223.877 Q 262.861 223.432 262.861 223.27 Q 262.861 214.522 255.166 214.522 Z" style="fill: rgb(185, 185, 185); white-space: pre;"></path>
    <path d="M 289.749 250 L 280.758 250 L 280.758 231.127 Q 280.758 225.619 284.039 222.541 Q 287.319 219.463 292.908 219.463 L 293.556 219.463 L 293.556 226.429 Q 289.749 226.429 289.749 232.099 Z" style="fill: rgb(185, 185, 185); white-space: pre;"></path>
    <path d="M 316.722 250.729 Q 309.594 250.729 304.977 246.517 Q 300.117 242.143 300.117 235.096 Q 300.117 228.13 304.977 223.756 Q 309.594 219.544 316.722 219.544 Q 322.149 219.544 328.305 223.351 L 323.121 229.021 Q 319.719 226.753 317.37 226.753 Q 313.887 226.753 311.255 229.142 Q 308.622 231.532 308.622 235.015 Q 308.622 238.579 311.174 241.049 Q 313.725 243.52 317.37 243.52 Q 320.124 243.52 323.688 240.523 L 328.953 246.112 Q 322.716 250.729 316.722 250.729 Z" style="fill: rgb(185, 185, 185); white-space: pre;"></path>
    <path d="M 353.256 249.919 L 353.256 232.018 Q 353.256 226.429 348.639 226.429 Q 344.022 226.429 344.022 232.018 L 344.022 249.919 L 335.031 249.919 L 335.031 198.97 L 343.941 198.97 L 343.941 221.002 Q 345.885 219.544 348.639 219.544 Q 354.714 219.544 358.278 222.136 Q 362.328 225.133 362.328 231.046 L 362.328 249.919 Z" style="fill: rgb(185, 185, 185); white-space: pre;"></path>
    <path d="M 374.963 216.304 Q 372.857 216.304 371.48 214.886 Q 370.103 213.469 370.103 211.444 Q 370.103 209.338 371.48 207.92 Q 372.857 206.503 374.963 206.503 Q 376.988 206.503 378.405 207.92 Q 379.823 209.338 379.823 211.444 Q 379.823 213.55 378.405 214.927 Q 376.988 216.304 374.963 216.304 Z M 370.508 249.919 L 370.508 220.111 L 379.418 220.111 L 379.418 249.919 Z" style="fill: rgb(185, 185, 185); white-space: pre;"></path>
    <path d="M 407.442 249.919 L 397.155 249.919 L 386.544 220.273 L 395.697 220.273 L 402.258 240.685 L 408.9 220.273 L 417.972 220.273 Z" style="fill: rgb(185, 185, 185); white-space: pre;"></path>
    <path d="M 431.661 237.85 Q 432.228 240.604 434.415 242.629 Q 436.602 244.654 439.275 244.654 Q 441.138 244.654 443.325 243.682 Q 445.998 242.548 445.998 241.009 L 455.556 240.928 Q 453.531 245.707 448.671 248.38 Q 444.135 250.891 438.708 250.891 Q 431.742 250.891 427.165 246.557 Q 422.589 242.224 422.589 235.258 Q 422.589 228.049 427.165 223.796 Q 431.742 219.544 439.032 219.544 Q 446.97 219.544 451.425 224.809 Q 455.556 229.669 455.556 237.85 Z M 446.484 232.261 Q 445.917 229.345 444.054 227.482 Q 441.948 225.457 439.194 225.457 Q 436.359 225.457 434.455 227.401 Q 432.552 229.345 431.904 232.261 Z" style="fill: rgb(185, 185, 185); white-space: pre;"></path>
    <path d="M 471.593 250 L 462.602 250 L 462.602 231.127 Q 462.602 225.619 465.882 222.541 Q 469.163 219.463 474.752 219.463 L 475.4 219.463 L 475.4 226.429 Q 471.593 226.429 471.593 232.099 Z" style="fill: rgb(185, 185, 185); white-space: pre;"></path>
    <path d="M 56.877 250 L 56.877 232.18 Q 56.877 226.591 52.26 226.591 Q 47.643 226.591 47.643 232.18 L 47.643 250 L 38.652 250 L 38.652 232.18 Q 38.652 226.591 34.035 226.591 Q 29.337 226.591 29.337 232.18 L 29.337 250 L 20.346 250 L 20.346 231.127 Q 20.346 225.295 24.396 222.298 Q 27.96 219.625 34.035 219.625 Q 40.191 219.625 43.107 222.784 Q 45.618 219.625 52.26 219.625 Q 58.335 219.625 61.899 222.298 Q 65.949 225.295 65.949 231.127 L 65.949 250 Z" style="fill: rgb(249, 128, 18); white-space: pre;"></path>
    <path d="M 87.169 250.729 Q 80.284 250.729 75.789 246.355 Q 71.293 241.981 71.293 235.096 Q 71.293 228.211 75.789 223.837 Q 80.284 219.463 87.169 219.463 Q 94.054 219.463 98.59 223.837 Q 103.126 228.211 103.126 235.096 Q 103.126 241.981 98.59 246.355 Q 94.054 250.729 87.169 250.729 Z M 87.169 226.753 Q 83.929 226.753 82.188 229.223 Q 80.446 231.694 80.446 235.096 Q 80.446 238.498 82.066 240.847 Q 83.929 243.52 87.169 243.52 Q 90.409 243.52 92.272 240.847 Q 93.973 238.498 93.973 235.096 Q 93.973 231.694 92.353 229.345 Q 90.49 226.753 87.169 226.753 Z" style="fill: rgb(249, 128, 18); white-space: pre;"></path>
    <path d="M 124.021 250.729 Q 117.136 250.729 112.64 246.355 Q 108.145 241.981 108.145 235.096 Q 108.145 228.211 112.64 223.837 Q 117.136 219.463 124.021 219.463 Q 130.906 219.463 135.442 223.837 Q 139.978 228.211 139.978 235.096 Q 139.978 241.981 135.442 246.355 Q 130.906 250.729 124.021 250.729 Z M 124.021 226.753 Q 120.781 226.753 119.039 229.223 Q 117.298 231.694 117.298 235.096 Q 117.298 238.498 118.918 240.847 Q 120.781 243.52 124.021 243.52 Q 127.261 243.52 129.124 240.847 Q 130.825 238.498 130.825 235.096 Q 130.825 231.694 129.205 229.345 Q 127.342 226.753 124.021 226.753 Z" style="fill: rgb(249, 128, 18); white-space: pre;"></path>
    <path d="M 168.494 249.919 L 168.494 246.922 Q 167.279 248.542 164.363 249.514 Q 161.771 250.405 159.422 250.405 Q 152.942 250.405 149.014 245.95 Q 145.085 241.495 145.085 234.934 Q 145.085 228.454 148.933 224.08 Q 152.78 219.706 159.179 219.706 Q 166.388 219.706 168.494 223.594 L 168.494 198.97 L 177.323 198.97 L 177.323 249.919 Z M 168.494 232.99 Q 168.494 230.56 166.186 228.332 Q 163.877 226.105 161.447 226.105 Q 157.964 226.105 155.939 228.94 Q 154.157 231.451 154.157 235.096 Q 154.157 238.66 155.939 241.171 Q 157.964 244.087 161.447 244.087 Q 163.553 244.087 166.024 242.102 Q 168.494 240.118 168.494 238.012 Z" style="fill: rgb(249, 128, 18); white-space: pre;"></path>
    <path d="M 185.828 249.919 L 185.828 198.97 L 194.819 198.97 L 194.819 249.919 Z" style="fill: rgb(249, 128, 18); white-space: pre;"></path>
    <path d="M 209.72 237.85 Q 210.287 240.604 212.474 242.629 Q 214.661 244.654 217.334 244.654 Q 219.197 244.654 221.384 243.682 Q 224.057 242.548 224.057 241.009 L 233.615 240.928 Q 231.59 245.707 226.73 248.38 Q 222.194 250.891 216.767 250.891 Q 209.801 250.891 205.224 246.557 Q 200.648 242.224 200.648 235.258 Q 200.648 228.049 205.224 223.796 Q 209.801 219.544 217.091 219.544 Q 225.029 219.544 229.484 224.809 Q 233.615 229.669 233.615 237.85 Z M 224.543 232.261 Q 223.976 229.345 222.113 227.482 Q 220.007 225.457 217.253 225.457 Q 214.418 225.457 212.514 227.401 Q 210.611 229.345 209.963 232.261 Z" style="fill: rgb(249, 128, 18); white-space: pre;"></path>
</svg>